<svg id="SvgjsSvg1032" width="288" height="288" xmlns="http://www.w3.org/2000/svg" version="1.1" xmlns:xlink="http://www.w3.org/1999/xlink" xmlns:svgjs="http://svgjs.com/svgjs"><defs id="SvgjsDefs1033"></defs><g id="SvgjsG1034"><svg xmlns="http://www.w3.org/2000/svg" enable-background="new 0 0 24 24" viewBox="0 0 24 24" width="288" height="288"><path d="M21,9h-1c-0.4307,0-0.8125,0.2754-0.9482,0.6836l-0.834,2.502l-0.1094,0.0317c-0.0361,0.0102-0.0723,0.0175-0.1084,0.0276
			V8.0203c0-0.0006-0.0001-0.0012,0-0.0018V6c0-1.6543-1.3457-3-3-3H9C7.3457,3,6,4.3457,6,6v2.0185
			c0.0001,0.0006,0,0.0012,0,0.0018v4.2247c-0.0336-0.0094-0.0681-0.0163-0.1016-0.0258l-0.1162-0.0337l-0.834-2.502
			C4.8125,9.2754,4.4307,9,4,9H3c-0.5527,0-1,0.4478-1,1s0.4473,1,1,1h0.2793l0.7725,2.3164
			c0.1035,0.3115,0.3545,0.5527,0.6699,0.6445l0.627,0.1807c0.2412,0.0683,0.4825,0.1221,0.7236,0.1837
			c0.0693,0.1978,0.185,0.3813,0.3731,0.5067l3.752,2.5013l-2.752,1.8347c-0.46,0.3066-0.584,0.9268-0.2773,1.3867
			C7.3604,20.8438,7.6777,21,8.001,21c0.1904,0,0.3828-0.0547,0.5537-0.168L12,18.5352l3.4453,2.2969
			C15.6162,20.9453,15.8086,21,15.999,21c0.3232,0,0.6406-0.1563,0.833-0.4453c0.3066-0.46,0.1826-1.0801-0.2773-1.3867
			l-2.752-1.8347l3.752-2.5013c0.1879-0.1252,0.3035-0.3085,0.3729-0.5062c0.2432-0.062,0.4846-0.1161,0.7307-0.1852l0.6201-0.1797
			c0.3154-0.0918,0.5664-0.333,0.6699-0.6445L20.7207,11H21c0.5527,0,1-0.4478,1-1S21.5527,9,21,9z M12,16.1315l-1.6868-1.1246
			c0.562,0.0394,1.1243,0.0663,1.6868,0.0663s1.1248-0.027,1.6868-0.0663L12,16.1315z M16,12.7032
			c-0.0445,0.0081-0.0889,0.0176-0.1334,0.0254c-0.5778,0.1014-1.1566,0.1802-1.736,0.236
			c-0.1074,0.0104-0.2147,0.0175-0.3221,0.0262c-1.2051,0.0985-2.4124,0.0984-3.6175-0.0001
			c-0.1071-0.0087-0.2142-0.0158-0.3213-0.0261c-0.579-0.0558-1.1573-0.1345-1.7345-0.2358C8.0901,12.7209,8.045,12.7112,8,12.7031
			V9.3969c1.3099,0.3785,2.655,0.5704,4,0.5704s2.6901-0.1919,4-0.5704V12.7032z M16,7.289c-2.6039,0.8857-5.3962,0.8856-8-0.0001V6
			c0-0.5513,0.4482-1,1-1h6c0.5518,0,1,0.4487,1,1V7.289z" fill="#2a2a2c" class="color000 svgShape"></path></svg></g></svg>